<svg version="1.2" xmlns="http://www.w3.org/2000/svg" viewBox="0 0 382 381" width="382" height="381">
	<title>Path 24 copy</title>
	<style>
		.s0 { fill: #000000 } 
	</style>
	<path id="Path 24 copy" fill-rule="evenodd" class="s0" d="m31.5 52.9c0-12.3 10-22.3 22.3-22.3 12.2 0 22.2 10 22.2 22.3 0 12.3-10 22.3-22.2 22.3-12.3 0-22.3-10-22.3-22.3zm14.8 0c0 4.1 3.4 7.4 7.5 7.4 4.1 0 7.4-3.3 7.4-7.4 0-4.1-3.3-7.4-7.4-7.4-4.1 0-7.5 3.3-7.5 7.4zm44.6 0c0-12.3 10-22.3 22.3-22.3 12.3 0 22.3 10 22.3 22.3 0 12.3-10 22.3-22.3 22.3-12.3 0-22.3-10-22.3-22.3zm14.8 0c0 4.1 3.4 7.4 7.5 7.4 4.1 0 7.4-3.3 7.4-7.4 0-4.1-3.3-7.4-7.4-7.4-4.1 0-7.5 3.3-7.5 7.4zm44.6 0c0-12.3 10-22.3 22.3-22.3 12.3 0 22.3 10 22.3 22.3 0 12.3-10 22.3-22.3 22.3-12.3 0-22.3-10-22.3-22.3zm14.9 0c0 4.1 3.3 7.4 7.4 7.4 4.1 0 7.4-3.3 7.4-7.4 0-4.1-3.3-7.4-7.4-7.4-4.1 0-7.4 3.3-7.4 7.4zm59.4 0c0-4.1 3.3-7.4 7.4-7.4h111.4c4.1 0 7.4 3.3 7.4 7.4 0 4.1-3.3 7.4-7.4 7.4h-111.4c-4.1 0-7.4-3.3-7.4-7.4zm66.8 167v29.9c0 4.1-3.3 7.5-7.4 7.5h-27.4q-1.5 4.1-3.4 8l19.4 19.4c2.9 2.9 2.9 7.6 0 10.5l-21.1 21.1c-2.9 2.9-7.6 2.9-10.5 0l-19.4-19.4q-3.9 2-8 3.4v27.4c0 4.1-3.4 7.4-7.5 7.4h-29.9c-4.1 0-7.4-3.3-7.4-7.4v-27.4q-4.2-1.4-8-3.3l-19.4 19.3c-2.9 2.9-7.6 2.9-10.6 0l-21.1-21.1c-2.9-2.9-2.9-7.6 0-10.5l19.4-19.4q-1.9-3.9-3.3-8h-27.5c-4.1 0-7.4-3.4-7.4-7.5v-29.9c0-4.1 3.3-7.4 7.4-7.4h27.5q1.4-4.1 3.3-8l-19.4-19.4c-2.9-2.9-2.9-7.6 0-10.5l21.1-21.2c3-2.9 7.7-2.9 10.6 0l19.4 19.4q3.8-1.9 8-3.3v-27.5c0-4.1 3.3-7.4 7.4-7.4h29.9c4.1 0 7.5 3.3 7.5 7.4v27.5q4.1 1.4 8 3.3l19.4-19.4c2.9-2.9 7.6-2.9 10.5 0l21.1 21.2c2.9 2.9 2.9 7.6 0 10.5l-19.4 19.4q1.9 3.9 3.4 8h27.4c4.1 0 7.4 3.3 7.4 7.4zm-14.8 7.4h-25.6c-3.4 0-6.4-2.3-7.2-5.6-1.3-5.2-3.3-10.2-6.1-14.7-1.8-3-1.3-6.7 1.1-9.1l18.1-18.1-10.7-10.7-18.1 18.1c-2.4 2.4-6.1 2.9-9 1.1-4.6-2.7-9.6-4.8-14.8-6.1-3.3-0.8-5.6-3.8-5.6-7.2v-25.5h-15.1v25.5c0 3.4-2.3 6.4-5.6 7.2-5.2 1.3-10.2 3.4-14.7 6.1-3 1.8-6.7 1.3-9.1-1.1l-18.1-18.1-10.7 10.7 18.1 18.1c2.4 2.4 2.9 6.1 1.1 9.1-2.7 4.5-4.8 9.5-6.1 14.7-0.8 3.3-3.8 5.6-7.2 5.6h-25.6v15.1h25.6c3.4 0 6.4 2.3 7.2 5.6 1.3 5.2 3.4 10.2 6.1 14.8 1.8 2.9 1.3 6.6-1.1 9l-18.1 18.1 10.7 10.7 18.1-18.1c2.4-2.4 6.1-2.8 9.1-1.1 4.5 2.8 9.5 4.8 14.7 6.1 3.3 0.8 5.6 3.8 5.6 7.2v25.6h15.1v-25.6c0-3.4 2.3-6.4 5.6-7.2 5.2-1.3 10.2-3.3 14.8-6.1 2.9-1.7 6.6-1.3 9 1.1l18.1 18.1 10.7-10.7-18.1-18.1c-2.4-2.4-2.9-6.1-1.1-9 2.8-4.6 4.8-9.6 6.1-14.8 0.8-3.3 3.8-5.6 7.2-5.6h25.6z"/>
	<path id="Path 25 copy" fill-rule="evenodd" class="s0" d="m224.6 234.9c0 18.4-15 33.4-33.4 33.4-18.5 0-33.5-15-33.5-33.4 0-18.5 15-33.5 33.5-33.5 18.4 0 33.4 15 33.4 33.5zm-14.8 0c0-10.3-8.4-18.6-18.6-18.6-10.3 0-18.7 8.3-18.7 18.6 0 10.2 8.4 18.6 18.7 18.6 10.2 0 18.6-8.4 18.6-18.6z"/>
	<path id="Path 26 copy" fill-rule="evenodd" class="s0" d="m380.5 30.6v319.4c0 16.4-13.3 29.7-29.7 29.7h-319.3c-16.4 0-29.7-13.3-29.7-29.7v-319.4c0-16.3 13.3-29.7 29.7-29.7h319.3c16.4 0 29.7 13.4 29.7 29.7zm-363.9 0v59.5h349.1v-59.5c0-8.2-6.7-14.8-14.9-14.8h-319.3c-8.2 0-14.9 6.6-14.9 14.8zm349.1 319.4v-245.1h-349.1v245.1c0 8.2 6.7 14.8 14.9 14.8h319.3c8.2 0 14.9-6.6 14.9-14.8z"/>
</svg>